<?xml version="1.0" encoding="utf-8"?>
<!-- Generator: Adobe Illustrator 17.1.0, SVG Export Plug-In . SVG Version: 6.00 Build 0)  -->
<!DOCTYPE svg PUBLIC "-//W3C//DTD SVG 1.1//EN" "http://www.w3.org/Graphics/SVG/1.1/DTD/svg11.dtd">
<svg version="1.1" id="Layer_1" xmlns="http://www.w3.org/2000/svg" xmlns:xlink="http://www.w3.org/1999/xlink" x="0px" y="0px"
	 viewBox="0 0 156 92" enable-background="new 0 0 156 92" xml:space="preserve">
<g>
	<polyline fill="#FFFFFF" points="54.5,0 0,92 109,92 54.5,0 	"/>
	<polyline fill="#FFFFFF" points="101.5,0 46.9,92 156,92 101.5,0 	"/>
	<polyline fill="#2E76BC" points="54.5,0 0,92 109,92 54.5,0 	"/>
	<polyline fill="#FCB560" points="101.5,0 124,38 100.5,77.6 109,92 156,92 101.5,0 	"/>
	<polyline fill="#2D5447" points="69.5,54 46.9,92 109,92 100.5,77.6 92,92 69.5,54 	"/>
	<path fill="#3B4A9F" d="M54.5,0L46,14.4L54.5,0 M101.5,0L78,39.6l0,0L101.5,0"/>
	<polyline fill="#000094" points="54.5,0 46,14.4 69.5,54 78,39.6 78,39.6 78,39.6 54.5,0 	"/>
	<polyline fill="#F30000" points="101.5,0 78,39.6 100.5,77.6 124,38 101.5,0 	"/>
	<polyline points="78,39.6 69.5,54 92,92 100.5,77.6 78,39.6 	"/>
</g>
</svg>
